<?xml version="1.0" encoding="UTF-8" ?>
<!DOCTYPE svg PUBLIC "-//W3C//DTD SVG 1.1//EN" "http://www.w3.org/Graphics/SVG/1.1/DTD/svg11.dtd">
<svg width="1200pt" height="1200pt" viewBox="0 0 1200 1200" version="1.1" xmlns="http://www.w3.org/2000/svg">
<g id="#393e46ff">
<path fill="#393e46" opacity="1.00" d=" M 0.00 0.00 L 1200.00 0.00 L 1200.00 1200.00 L 0.00 1200.00 L 0.00 0.00 M 157.50 157.50 C 157.50 452.50 157.50 747.50 157.50 1042.50 C 452.50 1042.50 747.50 1042.50 1042.50 1042.50 C 1042.50 747.50 1042.50 452.50 1042.50 157.50 C 747.50 157.50 452.50 157.50 157.50 157.50 Z" />
<path fill="#393e46" opacity="1.00" d=" M 172.52 172.52 C 457.51 172.49 742.49 172.49 1027.48 172.52 C 1027.51 457.51 1027.51 742.49 1027.48 1027.48 C 742.49 1027.51 457.51 1027.51 172.52 1027.48 C 172.49 742.49 172.49 457.51 172.52 172.52 M 881.75 670.14 C 881.94 673.59 884.15 676.42 886.78 678.47 C 880.49 692.86 874.21 707.25 868.08 721.71 C 860.19 714.64 852.48 707.36 844.37 700.54 C 845.19 698.44 846.50 696.41 846.55 694.10 C 846.98 688.34 841.88 682.89 836.11 682.86 C 829.20 682.37 823.17 689.81 825.43 696.45 C 826.42 700.87 830.60 703.72 834.88 704.39 C 837.52 714.33 839.97 724.32 842.34 734.33 C 843.03 737.18 844.04 739.99 844.01 742.97 C 844.01 750.22 843.99 757.48 844.00 764.74 C 844.44 765.18 845.33 766.06 845.77 766.50 C 876.93 766.49 908.08 766.50 939.24 766.50 C 939.68 766.06 940.56 765.17 941.00 764.73 C 941.54 754.43 939.55 743.80 942.78 733.80 C 945.15 723.98 947.50 714.15 950.12 704.39 C 954.42 703.77 958.46 700.78 959.57 696.46 C 961.22 691.16 957.80 684.87 952.46 683.38 C 947.15 681.51 940.69 684.73 939.01 690.10 C 937.65 693.61 938.71 697.43 940.64 700.50 C 932.56 707.37 924.86 714.67 916.91 721.69 C 910.87 707.18 904.24 692.92 898.36 678.36 C 900.73 676.54 902.66 674.00 903.06 670.97 C 904.23 665.17 899.60 659.23 893.81 658.58 C 887.38 657.58 881.03 663.67 881.75 670.14 M 390.00 810.00 C 390.00 815.00 390.00 820.00 390.00 825.00 C 580.00 825.00 770.00 825.00 960.00 825.00 C 960.00 820.00 960.00 815.00 960.00 810.00 C 770.00 810.00 580.00 810.00 390.00 810.00 M 866.27 865.28 C 866.15 870.84 866.23 876.42 866.21 882.00 C 872.47 882.00 878.73 882.00 885.00 882.00 C 884.75 876.47 885.52 870.83 884.62 865.39 C 878.51 865.21 872.39 865.49 866.27 865.28 M 674.50 868.00 C 674.50 900.00 674.50 932.00 674.50 964.00 C 679.90 963.95 685.30 964.12 690.70 963.87 C 690.68 941.94 690.46 920.00 690.81 898.08 C 708.14 919.93 725.14 942.05 742.36 964.00 C 746.73 964.00 751.11 964.00 755.50 964.00 C 755.50 932.00 755.50 900.00 755.50 868.00 C 750.00 867.99 744.50 868.00 739.00 868.00 C 738.94 890.36 739.12 912.73 738.91 935.09 C 721.70 912.79 704.52 890.46 687.47 868.03 C 683.15 867.98 678.82 867.99 674.50 868.00 M 803.52 895.74 C 794.83 897.45 786.73 902.71 782.30 910.47 C 777.27 919.15 776.51 929.78 778.41 939.48 C 780.05 947.97 785.26 955.83 792.83 960.13 C 800.81 965.05 810.66 965.79 819.75 964.39 C 829.11 962.72 837.94 956.92 842.35 948.38 C 846.42 940.62 847.22 931.47 845.94 922.91 C 844.65 913.56 839.31 904.55 831.00 899.84 C 822.87 894.77 812.75 894.17 803.52 895.74 M 934.60 897.43 C 929.74 899.64 926.35 903.96 924.26 908.76 C 923.77 904.50 923.29 900.26 922.93 896.00 C 917.60 896.00 912.28 896.00 906.97 896.00 C 908.21 903.58 908.01 911.27 908.11 918.93 C 908.07 933.95 908.17 948.98 908.06 964.00 C 913.70 964.00 919.35 964.00 925.00 964.00 C 925.00 952.02 925.00 940.04 924.99 928.07 C 924.90 922.57 926.73 916.70 931.19 913.22 C 936.92 908.77 945.23 908.76 951.49 912.13 C 951.66 906.64 951.61 901.15 951.81 895.67 C 946.08 894.52 939.86 894.66 934.60 897.43 M 867.08 896.10 C 867.11 918.73 867.15 941.37 867.06 964.00 C 872.70 964.00 878.35 964.00 884.00 964.00 C 884.00 941.33 884.00 918.67 884.00 896.00 C 878.36 896.03 872.71 895.90 867.08 896.10 Z" />
<path fill="#393e46" opacity="1.00" d=" M 887.29 668.12 C 887.82 663.65 893.51 663.01 896.64 665.27 C 897.73 667.77 898.83 671.12 896.23 673.12 C 892.85 676.96 885.64 673.02 887.29 668.12 Z" />
<path fill="#393e46" opacity="1.00" d=" M 887.20 691.05 C 889.12 687.25 890.01 682.87 892.76 679.55 C 900.29 695.84 906.76 712.62 914.43 728.84 C 915.63 728.66 917.10 729.02 918.00 727.95 C 926.93 720.16 935.49 711.92 944.55 704.28 C 941.57 716.03 938.65 727.79 935.80 739.57 C 906.88 739.41 877.95 739.53 849.03 739.51 C 846.53 727.70 843.31 716.06 840.47 704.33 C 849.49 712.00 858.06 720.18 867.00 727.95 C 867.90 729.02 869.35 728.67 870.58 728.83 C 876.50 716.41 881.57 703.60 887.20 691.05 Z" />
<path fill="#393e46" opacity="1.00" d=" M 831.02 691.13 C 832.35 688.19 836.35 687.53 839.00 689.02 C 841.07 690.58 841.14 693.31 841.17 695.68 C 839.56 697.40 837.58 699.71 834.91 698.90 C 831.45 698.46 829.24 694.14 831.02 691.13 Z" />
<path fill="#393e46" opacity="1.00" d=" M 947.35 688.49 C 950.73 687.26 955.10 690.30 954.53 694.00 C 954.49 698.28 948.53 700.75 945.58 697.56 C 942.36 695.12 943.78 689.72 947.35 688.49 Z" />
<path fill="#393e46" opacity="1.00" d=" M 849.25 745.01 C 878.08 745.00 906.92 745.00 935.75 745.00 C 935.75 750.33 935.74 755.66 935.75 760.99 C 906.92 761.00 878.08 761.00 849.25 760.99 C 849.25 755.66 849.25 750.33 849.25 745.01 Z" />
<path fill="#393e46" opacity="1.00" d=" M 808.48 908.50 C 814.37 907.49 821.25 908.92 825.05 913.88 C 828.89 918.66 829.63 925.04 829.53 930.98 C 829.37 935.82 828.84 940.96 825.99 945.06 C 819.58 955.05 801.87 954.22 796.86 943.29 C 793.71 936.15 793.58 927.86 795.54 920.39 C 797.01 914.33 802.20 909.23 808.48 908.50 Z" />
</g>
<g id="#eeeeeeff">
<path fill="#eeeeee" opacity="1.00" d=" M 157.50 157.50 C 452.50 157.50 747.50 157.50 1042.50 157.50 C 1042.50 452.50 1042.50 747.50 1042.50 1042.50 C 747.50 1042.50 452.50 1042.50 157.50 1042.50 C 157.50 747.50 157.50 452.50 157.50 157.50 M 172.52 172.52 C 172.49 457.51 172.49 742.49 172.52 1027.48 C 457.51 1027.51 742.49 1027.51 1027.48 1027.48 C 1027.51 742.49 1027.51 457.51 1027.48 172.52 C 742.49 172.49 457.51 172.49 172.52 172.52 Z" />
<path fill="#eeeeee" opacity="1.00" d=" M 881.75 670.14 C 881.03 663.67 887.38 657.58 893.81 658.58 C 899.60 659.23 904.23 665.17 903.06 670.97 C 902.66 674.00 900.73 676.54 898.36 678.36 C 904.24 692.92 910.87 707.18 916.91 721.69 C 924.86 714.67 932.56 707.37 940.64 700.50 C 938.71 697.43 937.65 693.61 939.01 690.10 C 940.69 684.73 947.15 681.51 952.46 683.38 C 957.80 684.87 961.22 691.16 959.57 696.46 C 958.46 700.78 954.42 703.77 950.12 704.39 C 947.50 714.15 945.15 723.98 942.78 733.80 C 939.55 743.80 941.54 754.43 941.00 764.73 C 940.56 765.17 939.68 766.06 939.24 766.50 C 908.08 766.50 876.93 766.49 845.77 766.50 C 845.33 766.06 844.44 765.18 844.00 764.74 C 843.99 757.48 844.01 750.22 844.01 742.97 C 844.04 739.99 843.03 737.18 842.34 734.33 C 839.97 724.32 837.52 714.33 834.88 704.39 C 830.60 703.72 826.42 700.87 825.43 696.45 C 823.17 689.81 829.20 682.37 836.11 682.86 C 841.88 682.89 846.98 688.34 846.55 694.10 C 846.50 696.41 845.19 698.44 844.37 700.54 C 852.48 707.36 860.19 714.64 868.08 721.71 C 874.21 707.25 880.49 692.86 886.78 678.47 C 884.15 676.42 881.94 673.59 881.75 670.14 M 887.29 668.12 C 885.64 673.02 892.85 676.96 896.23 673.12 C 898.83 671.12 897.73 667.77 896.64 665.27 C 893.51 663.01 887.82 663.65 887.29 668.12 M 887.20 691.05 C 881.57 703.60 876.50 716.41 870.58 728.83 C 869.35 728.67 867.90 729.02 867.00 727.95 C 858.06 720.18 849.49 712.00 840.47 704.33 C 843.31 716.06 846.53 727.70 849.03 739.51 C 877.95 739.53 906.88 739.41 935.80 739.57 C 938.65 727.79 941.57 716.03 944.55 704.28 C 935.49 711.92 926.93 720.16 918.00 727.95 C 917.10 729.02 915.63 728.66 914.43 728.84 C 906.76 712.62 900.29 695.84 892.76 679.55 C 890.01 682.87 889.12 687.25 887.20 691.05 M 831.02 691.13 C 829.24 694.14 831.45 698.46 834.91 698.90 C 837.58 699.71 839.56 697.40 841.17 695.68 C 841.14 693.31 841.07 690.58 839.00 689.02 C 836.35 687.53 832.35 688.19 831.02 691.13 M 947.35 688.49 C 943.78 689.72 942.36 695.12 945.58 697.56 C 948.53 700.75 954.49 698.28 954.53 694.00 C 955.10 690.30 950.73 687.26 947.35 688.49 M 849.25 745.01 C 849.25 750.33 849.25 755.66 849.25 760.99 C 878.08 761.00 906.92 761.00 935.75 760.99 C 935.74 755.66 935.75 750.33 935.75 745.00 C 906.92 745.00 878.08 745.00 849.25 745.01 Z" />
<path fill="#eeeeee" opacity="1.00" d=" M 390.00 810.00 C 580.00 810.00 770.00 810.00 960.00 810.00 C 960.00 815.00 960.00 820.00 960.00 825.00 C 770.00 825.00 580.00 825.00 390.00 825.00 C 390.00 820.00 390.00 815.00 390.00 810.00 Z" />
<path fill="#eeeeee" opacity="1.00" d=" M 866.27 865.28 C 872.39 865.49 878.51 865.21 884.62 865.39 C 885.52 870.83 884.75 876.47 885.00 882.00 C 878.73 882.00 872.47 882.00 866.21 882.00 C 866.23 876.42 866.15 870.84 866.27 865.28 Z" />
<path fill="#eeeeee" opacity="1.00" d=" M 674.50 868.00 C 678.82 867.99 683.15 867.98 687.47 868.03 C 704.52 890.46 721.70 912.79 738.91 935.09 C 739.12 912.73 738.94 890.36 739.00 868.00 C 744.50 868.00 750.00 867.99 755.50 868.00 C 755.50 900.00 755.50 932.00 755.50 964.00 C 751.11 964.00 746.73 964.00 742.36 964.00 C 725.14 942.05 708.14 919.93 690.81 898.08 C 690.46 920.00 690.68 941.94 690.70 963.87 C 685.30 964.12 679.90 963.95 674.50 964.00 C 674.50 932.00 674.50 900.00 674.50 868.00 Z" />
<path fill="#eeeeee" opacity="1.00" d=" M 803.52 895.74 C 812.75 894.17 822.87 894.77 831.00 899.84 C 839.31 904.55 844.65 913.56 845.94 922.91 C 847.22 931.47 846.42 940.62 842.35 948.38 C 837.94 956.92 829.11 962.72 819.75 964.39 C 810.66 965.79 800.81 965.05 792.83 960.13 C 785.26 955.83 780.05 947.97 778.41 939.48 C 776.51 929.78 777.27 919.15 782.30 910.47 C 786.73 902.71 794.83 897.45 803.52 895.74 M 808.48 908.50 C 802.20 909.23 797.01 914.33 795.54 920.39 C 793.58 927.86 793.71 936.15 796.86 943.29 C 801.87 954.22 819.58 955.05 825.99 945.06 C 828.84 940.96 829.37 935.82 829.53 930.98 C 829.63 925.04 828.89 918.66 825.05 913.88 C 821.25 908.92 814.37 907.49 808.48 908.50 Z" />
<path fill="#eeeeee" opacity="1.00" d=" M 934.60 897.43 C 939.86 894.66 946.08 894.52 951.81 895.67 C 951.61 901.15 951.66 906.64 951.49 912.13 C 945.23 908.76 936.92 908.77 931.19 913.22 C 926.73 916.70 924.90 922.57 924.99 928.07 C 925.00 940.04 925.00 952.02 925.00 964.00 C 919.35 964.00 913.70 964.00 908.06 964.00 C 908.17 948.98 908.07 933.95 908.11 918.93 C 908.01 911.27 908.21 903.58 906.97 896.00 C 912.28 896.00 917.60 896.00 922.93 896.00 C 923.29 900.26 923.77 904.50 924.26 908.76 C 926.35 903.96 929.74 899.64 934.60 897.43 Z" />
<path fill="#eeeeee" opacity="1.00" d=" M 867.08 896.10 C 872.71 895.90 878.36 896.03 884.00 896.00 C 884.00 918.67 884.00 941.33 884.00 964.00 C 878.35 964.00 872.70 964.00 867.06 964.00 C 867.15 941.37 867.11 918.73 867.08 896.10 Z" />
</g>
</svg>
