<?xml version="1.0" encoding="utf-8"?>
<!-- Generator: Adobe Illustrator 25.3.1, SVG Export Plug-In . SVG Version: 6.00 Build 0)  -->
<svg version="1.1" id="Layer_1" xmlns="http://www.w3.org/2000/svg" xmlns:xlink="http://www.w3.org/1999/xlink" x="0px" y="0px"
	 viewBox="0 0 958 764" style="enable-background:new 0 0 958 764;" xml:space="preserve">
<style type="text/css">
	.st0{fill:#F2BB00;}
</style>
<g>
	<g id="_x23_2d3445ff">
	</g>
	<g id="_x23_f2bb00ff">
		<path class="st0" d="M350.6,218.7c8.1,0,16.3-0.2,24.4,0c2.3-0.2,4.1,1.4,5.4,3.2c50.2,70.5,100.4,140.9,150.7,211.4
			c15.5,21.6,30.7,43.5,46.5,65c0.2-90,0.1-179.9,0.1-269.9c-6.5-1.6-12.9-3.4-19.4-5c0-1.6,0-3.2-0.1-4.8c16.4,0,32.8,0,49.2,0
			c-0.1,1.4-0.1,2.8-0.2,4.2c-0.8,0.9-2.1,1-3.1,1.4c-5.4,1.4-10.8,2.8-16.3,4.2c0,92.4,0,184.7,0,277.1c-0.1,3.7,0.4,7.5-0.5,11.1
			c-1.7,3.8-7.5,3.3-9.2-0.2c-46.9-65.8-93.7-131.7-140.5-197.5c-19-26.6-37.9-53.4-57-80c-0.2,88.5,0,176.9-0.1,265.4
			c6.5,1.7,13,3.3,19.5,4.9c0,1.8,0,3.5,0,5.3c-15,0-30,0-44.9,0c-1.4-0.1-3.2,0.3-4.2-1c-0.1-1.4,0.1-2.8,0.4-4.1
			c6.3-2.2,13-3,19.2-5.3c0.4-91.9,0-183.8,0.2-275.8c-6.4-1.9-13-3.1-19.4-5.3C350.9,221.7,350.8,220.2,350.6,218.7z"/>
	</g>
	<g id="_x23_ffffffff">
	</g>
</g>
</svg>
