<?xml version="1.0" encoding="UTF-8" ?>
<!DOCTYPE svg PUBLIC "-//W3C//DTD SVG 1.1//EN" "http://www.w3.org/Graphics/SVG/1.1/DTD/svg11.dtd">
<svg width="958pt" height="764pt" viewBox="0 0 958 764" version="1.1" xmlns="http://www.w3.org/2000/svg">
<g id="#efefefff">
<path fill="#efefef" opacity="1.00" d=" M 0.00 0.00 L 958.00 0.00 L 958.00 764.00 L 953.90 764.00 L 953.92 763.00 C 954.29 715.99 953.98 668.97 954.08 621.96 C 954.07 415.03 954.08 208.08 954.09 1.15 C 916.06 0.75 878.01 0.95 839.98 0.97 C 587.33 0.92 334.68 1.06 82.03 0.94 C 55.03 1.25 28.03 0.72 1.03 1.08 L 0.00 1.08 L 0.00 0.00 Z" />
</g>
<g id="#434957ff">
<path fill="#434957" opacity="1.00" d=" M 0.00 1.08 L 1.03 1.08 C 1.16 255.05 0.94 509.03 1.14 763.00 C 209.75 763.22 418.36 762.99 626.97 763.10 C 735.96 763.02 844.94 763.20 953.92 763.00 L 953.90 764.00 L 0.00 764.00 L 0.00 1.08 Z" />
</g>
<g id="#2d3445ff">
<path fill="#2d3445" opacity="1.00" d=" M 1.03 1.08 C 28.03 0.72 55.03 1.25 82.03 0.94 C 334.68 1.06 587.33 0.92 839.98 0.97 C 878.01 0.95 916.06 0.75 954.09 1.15 C 954.08 208.08 954.07 415.03 954.08 621.96 C 953.98 668.97 954.29 715.99 953.92 763.00 C 844.94 763.20 735.96 763.02 626.97 763.10 C 418.36 762.99 209.75 763.22 1.14 763.00 C 0.94 509.03 1.16 255.05 1.03 1.08 M 348.65 188.30 C 348.83 189.80 348.96 191.30 349.21 192.80 C 355.53 195.00 362.15 196.20 368.58 198.07 C 368.47 289.98 368.78 381.91 368.42 473.82 C 362.17 476.10 355.45 476.87 349.17 479.08 C 348.82 480.42 348.69 481.79 348.76 483.18 C 349.76 484.50 351.49 484.09 352.93 484.22 C 367.90 484.15 382.87 484.22 397.85 484.17 C 397.85 482.41 397.86 480.66 397.86 478.90 C 391.35 477.33 384.88 475.64 378.40 473.98 C 378.47 385.52 378.31 297.07 378.48 208.61 C 397.68 235.13 416.48 261.93 435.53 288.56 C 482.38 354.38 529.22 420.22 576.07 486.04 C 577.84 489.53 583.63 490.03 585.31 486.22 C 586.16 482.57 585.66 478.77 585.77 475.07 C 585.77 382.71 585.75 290.36 585.78 198.00 C 591.22 196.66 596.63 195.23 602.06 193.83 C 603.08 193.44 604.40 193.38 605.17 192.46 C 605.26 191.05 605.34 189.65 605.40 188.25 C 588.99 188.27 572.57 188.28 556.16 188.25 C 556.17 189.83 556.18 191.42 556.21 193.01 C 562.70 194.61 569.14 196.42 575.64 197.97 C 575.66 287.94 575.81 377.91 575.57 467.88 C 559.83 446.41 544.63 424.54 529.09 402.92 C 478.87 332.45 428.63 261.99 378.42 191.52 C 377.17 189.75 375.37 188.15 373.06 188.32 C 364.93 188.15 356.79 188.30 348.65 188.30 M 312.39 565.44 C 312.40 588.17 312.39 610.90 312.39 633.63 C 314.46 633.62 316.53 633.62 318.60 633.63 C 318.57 615.14 318.69 596.65 318.52 578.16 C 334.58 596.26 350.29 614.68 366.26 632.86 C 367.32 634.10 369.07 634.13 370.52 634.61 C 370.82 611.71 370.58 588.81 370.64 565.91 C 368.59 565.90 366.53 565.89 364.48 565.89 C 364.52 584.56 364.31 603.24 364.59 621.91 C 348.60 602.83 332.06 584.21 315.72 565.43 C 314.60 565.43 313.50 565.43 312.39 565.44 M 447.55 565.71 C 436.51 568.30 427.67 577.46 424.35 588.15 C 421.10 598.81 422.41 611.03 428.71 620.34 C 433.26 626.91 440.06 632.16 447.97 633.86 C 454.48 635.27 461.44 635.05 467.74 632.81 C 476.02 629.75 482.79 623.10 486.42 615.10 C 492.56 601.17 489.77 583.12 478.02 572.94 C 470.05 565.33 458.05 563.20 447.55 565.71 M 541.52 565.89 C 541.49 588.46 541.52 611.04 541.50 633.61 C 543.56 633.62 545.62 633.63 547.69 633.64 C 547.69 611.07 547.70 588.50 547.68 565.93 C 545.62 565.90 543.56 565.88 541.52 565.89 M 603.52 566.30 C 603.55 588.74 603.53 611.18 603.53 633.62 C 605.59 633.62 607.65 633.63 609.72 633.64 C 609.72 624.65 609.72 615.66 609.72 606.67 C 614.56 606.78 619.40 606.64 624.24 606.94 C 627.67 609.74 629.68 614.02 632.56 617.40 C 636.66 622.52 640.16 628.49 646.02 631.83 C 649.70 634.00 654.07 634.42 658.26 634.33 C 658.19 633.05 658.17 631.77 658.01 630.51 C 656.59 629.49 654.79 629.27 653.20 628.67 C 648.80 627.28 645.47 623.85 642.69 620.32 C 638.62 615.11 634.57 609.88 630.70 604.51 C 636.46 599.61 641.90 592.98 641.67 584.99 C 642.06 578.04 637.99 571.19 631.68 568.25 C 622.94 563.91 612.85 565.78 603.52 566.30 Z" />
<path fill="#2d3445" opacity="1.00" d=" M 447.52 571.75 C 454.84 569.60 463.23 570.09 469.82 574.17 C 477.55 578.99 482.49 587.88 482.74 596.97 C 482.90 601.54 482.85 606.24 481.25 610.59 C 478.42 619.19 471.23 626.65 462.15 628.39 C 453.29 630.51 443.22 627.81 437.07 620.97 C 427.79 610.83 426.83 594.44 433.79 582.80 C 437.01 577.78 441.77 573.58 447.52 571.75 Z" />
<path fill="#2d3445" opacity="1.00" d=" M 609.72 571.45 C 617.45 571.30 627.05 569.78 632.62 576.55 C 638.60 584.99 633.37 597.88 624.07 601.38 C 619.30 601.87 614.50 601.35 609.72 601.32 C 609.72 591.36 609.73 581.41 609.72 571.45 Z" />
</g>
<g id="#f2bb00ff">
<path fill="#f2bb00" opacity="1.00" d=" M 348.65 188.30 C 356.79 188.30 364.93 188.15 373.06 188.32 C 375.37 188.15 377.17 189.75 378.42 191.52 C 428.63 261.99 478.87 332.45 529.09 402.92 C 544.63 424.54 559.83 446.41 575.57 467.88 C 575.81 377.91 575.66 287.94 575.64 197.97 C 569.14 196.42 562.70 194.61 556.21 193.01 C 556.18 191.42 556.17 189.83 556.16 188.25 C 572.57 188.28 588.99 188.27 605.40 188.25 C 605.34 189.65 605.26 191.05 605.17 192.46 C 604.40 193.38 603.08 193.44 602.06 193.83 C 596.63 195.23 591.22 196.66 585.78 198.00 C 585.75 290.36 585.77 382.71 585.77 475.07 C 585.66 478.77 586.16 482.57 585.31 486.22 C 583.63 490.03 577.84 489.53 576.07 486.04 C 529.22 420.22 482.38 354.38 435.53 288.56 C 416.48 261.93 397.68 235.13 378.48 208.61 C 378.31 297.07 378.47 385.52 378.40 473.98 C 384.88 475.64 391.35 477.33 397.86 478.90 C 397.86 480.66 397.85 482.41 397.85 484.17 C 382.87 484.22 367.90 484.15 352.93 484.22 C 351.49 484.09 349.76 484.50 348.76 483.18 C 348.69 481.79 348.82 480.42 349.17 479.08 C 355.45 476.87 362.17 476.10 368.42 473.82 C 368.78 381.91 368.47 289.98 368.58 198.07 C 362.15 196.20 355.53 195.00 349.21 192.80 C 348.96 191.30 348.83 189.80 348.65 188.30 Z" />
</g>
<g id="#ffffffff">
<path fill="#ffffff" opacity="1.00" d=" M 312.39 565.44 C 313.50 565.43 314.60 565.43 315.72 565.43 C 332.06 584.21 348.60 602.83 364.59 621.91 C 364.31 603.24 364.52 584.56 364.48 565.89 C 366.53 565.89 368.59 565.90 370.64 565.91 C 370.58 588.81 370.82 611.71 370.52 634.61 C 369.07 634.13 367.32 634.10 366.26 632.86 C 350.29 614.68 334.58 596.26 318.52 578.16 C 318.69 596.65 318.57 615.14 318.60 633.63 C 316.53 633.62 314.46 633.62 312.39 633.63 C 312.39 610.90 312.40 588.17 312.39 565.44 Z" />
<path fill="#ffffff" opacity="1.00" d=" M 447.55 565.71 C 458.05 563.20 470.05 565.33 478.02 572.94 C 489.77 583.12 492.56 601.17 486.42 615.10 C 482.79 623.10 476.02 629.75 467.74 632.81 C 461.44 635.05 454.48 635.27 447.97 633.86 C 440.06 632.16 433.26 626.91 428.71 620.34 C 422.41 611.03 421.10 598.81 424.35 588.15 C 427.67 577.46 436.51 568.30 447.55 565.71 M 447.52 571.75 C 441.77 573.58 437.01 577.78 433.79 582.80 C 426.83 594.44 427.79 610.83 437.07 620.97 C 443.22 627.81 453.29 630.51 462.15 628.39 C 471.23 626.65 478.42 619.19 481.25 610.59 C 482.85 606.24 482.90 601.54 482.74 596.97 C 482.49 587.88 477.55 578.99 469.82 574.17 C 463.23 570.09 454.84 569.60 447.52 571.75 Z" />
<path fill="#ffffff" opacity="1.00" d=" M 541.52 565.89 C 543.56 565.88 545.62 565.90 547.68 565.93 C 547.70 588.50 547.69 611.07 547.69 633.64 C 545.62 633.63 543.56 633.62 541.50 633.61 C 541.52 611.04 541.49 588.46 541.52 565.89 Z" />
<path fill="#ffffff" opacity="1.00" d=" M 603.52 566.30 C 612.85 565.78 622.94 563.91 631.68 568.25 C 637.99 571.19 642.06 578.04 641.67 584.99 C 641.90 592.98 636.46 599.61 630.70 604.51 C 634.57 609.88 638.62 615.11 642.69 620.32 C 645.47 623.85 648.80 627.28 653.20 628.67 C 654.79 629.27 656.59 629.49 658.01 630.51 C 658.17 631.77 658.19 633.05 658.26 634.33 C 654.07 634.42 649.70 634.00 646.02 631.83 C 640.16 628.49 636.66 622.52 632.56 617.40 C 629.68 614.02 627.67 609.74 624.24 606.94 C 619.40 606.64 614.56 606.78 609.72 606.67 C 609.72 615.66 609.72 624.65 609.72 633.64 C 607.65 633.63 605.59 633.62 603.53 633.62 C 603.53 611.18 603.55 588.74 603.52 566.30 M 609.72 571.45 C 609.73 581.41 609.72 591.36 609.72 601.32 C 614.50 601.35 619.30 601.87 624.07 601.38 C 633.37 597.88 638.60 584.99 632.62 576.55 C 627.05 569.78 617.45 571.30 609.72 571.45 Z" />
</g>
</svg>
