<?xml version="1.0" encoding="utf-8"?>
<!-- Generator: Adobe Illustrator 24.1.1, SVG Export Plug-In . SVG Version: 6.00 Build 0)  -->
<svg version="1.1" id="Layer_1" xmlns="http://www.w3.org/2000/svg" xmlns:xlink="http://www.w3.org/1999/xlink" x="0px" y="0px"
	 viewBox="0 0 50 39" style="enable-background:new 0 0 50 39;" xml:space="preserve">
<style type="text/css">
	.st0{fill:#423148;}
</style>
<g>
	<polyline class="st0" points="25.25,3.21 17.79,16.14 25.25,29.07 28.61,23.26 24.68,16.47 24.5,16.14 24.68,15.81 28.61,9.02 
		25.25,3.21 	"/>
	<polyline class="st0" points="17.79,3.21 10.32,16.14 17.79,29.07 21.14,23.26 20.57,22.28 17.79,27.1 11.45,16.14 17.79,5.17 	"/>
	<polyline class="st0" points="17.79,5.17 20.57,10 21.14,9.02 17.79,3.21 	"/>
	<polygon class="st0" points="32.55,14.56 32.56,14.56 32.56,12.48 27.85,20.63 28.44,21.67 	"/>
	<polygon class="st0" points="32.55,11.71 32.56,11.71 32.56,9.63 27.02,19.21 27.62,20.24 	"/>
	<polyline class="st0" points="32.56,3.49 25.25,16.14 25.98,17.39 32.55,6 32.56,6.01 32.56,3.49 	"/>
	<polygon class="st0" points="32.55,8.86 32.56,8.86 32.56,6.77 26.2,17.78 26.8,18.82 	"/>
	<polyline class="st0" points="32.88,3.49 32.88,28.79 40.19,16.14 32.88,3.49 	"/>
	<polygon class="st0" points="32.55,17.41 32.56,17.41 32.56,15.33 28.67,22.06 29.27,23.09 	"/>
	<polygon class="st0" points="32.55,20.26 32.56,20.27 32.56,18.18 29.49,23.48 30.09,24.52 	"/>
	<polygon class="st0" points="32.56,26.07 31.77,27.43 32.56,28.79 	"/>
	<polygon class="st0" points="31.55,27.04 32.55,25.3 32.56,25.31 32.56,23.88 31.14,26.33 31.55,27.04 	"/>
	<polygon class="st0" points="32.55,23.11 32.56,23.12 32.56,21.03 30.32,24.91 30.91,25.94 	"/>
	<g>
	</g>
</g>
</svg>
