<?xml version="1.0" encoding="UTF-8" ?>
<!DOCTYPE svg PUBLIC "-//W3C//DTD SVG 1.1//EN" "http://www.w3.org/Graphics/SVG/1.1/DTD/svg11.dtd">
<svg width="310px" height="69px" viewBox="0 0 1200 1000" version="1.1" xmlns="http://www.w3.org/2000/svg">
<g id="#393e46ff">
<path fill="#393e46" opacity="1.00" d=" M 172.52 172.52 C 457.51 172.49 742.49 172.48 1027.48 172.52 C 1027.51 457.51 1027.52 742.49 1027.48 1027.48 C 742.49 1027.51 457.51 1027.52 172.52 1027.48 C 172.49 742.49 172.48 457.51 172.52 172.52 M 885.42 661.29 C 879.88 665.62 880.89 674.88 886.81 678.40 C 880.52 692.81 874.21 707.22 868.09 721.71 C 860.18 714.64 852.47 707.34 844.35 700.52 C 845.22 698.41 846.55 696.36 846.56 694.01 C 846.92 688.20 841.72 682.77 835.89 682.85 C 829.33 682.57 823.55 689.36 825.26 695.80 C 826.05 700.47 830.32 703.77 834.87 704.35 C 837.61 714.63 840.13 724.97 842.58 735.33 C 843.24 737.83 844.07 740.33 844.00 742.96 C 844.01 750.22 843.99 757.48 843.99 764.74 C 844.45 765.19 845.35 766.07 845.80 766.51 C 876.92 766.50 908.03 766.47 939.14 766.53 C 939.61 766.08 940.54 765.19 941.01 764.74 C 941.12 756.64 940.72 748.51 941.21 740.42 C 944.06 728.37 946.94 716.32 950.13 704.35 C 956.46 703.78 961.49 697.13 959.62 690.90 C 958.10 684.38 950.00 680.72 944.16 684.12 C 938.24 686.97 936.62 695.32 940.69 700.38 C 932.66 707.37 924.86 714.63 916.90 721.69 C 910.89 707.15 904.18 692.90 898.36 678.29 C 902.47 675.60 904.31 670.07 902.54 665.46 C 900.20 658.71 890.56 656.04 885.42 661.29 M 390.00 810.00 C 390.00 815.00 390.00 820.00 390.00 825.00 C 580.00 825.00 770.00 825.00 960.00 825.00 C 960.00 820.00 960.00 815.00 960.00 810.00 C 770.00 810.00 580.00 810.00 390.00 810.00 M 866.27 865.29 C 866.14 870.85 866.23 876.42 866.20 881.99 C 872.47 882.01 878.73 882.00 885.00 882.00 C 884.75 876.49 885.50 870.83 884.64 865.42 C 878.52 865.19 872.39 865.50 866.27 865.29 M 674.50 868.00 C 674.50 900.00 674.50 932.00 674.50 964.00 C 679.91 963.91 685.33 964.21 690.74 963.80 C 690.63 941.90 690.50 919.99 690.80 898.10 C 708.16 919.92 725.14 942.06 742.35 964.00 C 746.73 964.00 751.11 964.00 755.50 964.00 C 755.50 932.00 755.50 900.00 755.50 868.00 C 749.99 868.00 744.50 867.99 739.00 868.00 C 738.94 890.35 739.11 912.70 738.92 935.05 C 721.67 912.93 704.78 890.52 687.59 868.36 C 683.42 867.47 678.83 868.26 674.50 868.00 M 803.56 895.73 C 794.88 897.43 786.77 902.67 782.33 910.41 C 777.27 919.10 776.52 929.76 778.41 939.48 C 780.06 947.97 785.26 955.85 792.85 960.14 C 800.85 965.07 810.73 965.79 819.84 964.38 C 829.18 962.68 837.98 956.88 842.37 948.34 C 846.42 940.59 847.21 931.45 845.94 922.91 C 844.65 913.60 839.36 904.60 831.08 899.89 C 822.96 894.78 812.81 894.17 803.56 895.73 M 924.27 908.75 C 923.75 904.50 923.30 900.25 922.93 896.00 C 917.60 896.00 912.28 896.00 906.96 896.00 C 908.22 903.59 908.00 911.31 908.11 918.98 C 908.06 933.99 908.18 948.99 908.05 964.00 C 913.70 963.99 919.35 964.00 925.00 964.00 C 925.00 952.00 925.00 940.00 924.99 928.00 C 924.96 923.91 925.88 919.71 928.26 916.33 C 933.31 909.04 944.08 908.01 951.47 912.14 C 951.68 906.65 951.62 901.16 951.79 895.68 C 941.01 892.79 928.23 897.90 924.27 908.75 M 867.09 896.10 C 867.09 918.73 867.16 941.37 867.05 964.00 C 872.70 963.99 878.35 964.00 884.00 964.00 C 884.00 941.33 884.00 918.67 884.00 896.00 C 878.36 896.04 872.72 895.89 867.09 896.10 Z" />
<path fill="#393e46" opacity="1.00" d=" M 890.22 664.37 C 892.34 663.33 894.71 664.23 896.62 665.32 C 897.14 667.13 898.47 668.97 897.70 670.91 C 896.59 674.49 891.52 675.98 888.84 673.19 C 885.94 670.93 886.79 665.63 890.22 664.37 Z" />
<path fill="#393e46" opacity="1.00" d=" M 892.15 679.65 C 894.20 681.26 894.63 684.03 895.79 686.24 C 902.09 700.36 907.77 714.76 914.37 728.74 C 915.04 728.73 916.38 728.72 917.04 728.71 C 926.41 720.81 935.11 712.09 944.59 704.32 C 941.48 716.03 938.73 727.84 935.76 739.58 C 906.86 739.41 877.96 739.52 849.07 739.53 C 846.49 727.73 843.34 716.07 840.47 704.34 C 849.84 712.26 858.66 720.81 868.00 728.77 C 870.11 729.46 871.40 727.83 872.03 726.06 C 878.71 710.58 885.42 695.11 892.15 679.65 Z" />
<path fill="#393e46" opacity="1.00" d=" M 832.38 697.71 C 828.72 695.07 830.56 688.53 835.11 688.32 C 839.40 687.30 841.89 691.98 841.09 695.68 C 839.30 698.60 835.17 700.34 832.38 697.71 Z" />
<path fill="#393e46" opacity="1.00" d=" M 947.29 688.51 C 950.70 687.22 955.14 690.30 954.53 694.05 C 954.46 698.30 948.52 700.73 945.59 697.57 C 942.37 695.16 943.76 689.79 947.29 688.51 Z" />
<path fill="#393e46" opacity="1.00" d=" M 849.25 745.01 C 878.08 744.99 906.92 744.99 935.76 745.01 C 935.74 750.33 935.74 755.66 935.75 760.99 C 906.92 761.01 878.08 761.00 849.25 760.99 C 849.25 755.66 849.25 750.33 849.25 745.01 Z" />
<path fill="#393e46" opacity="1.00" d=" M 808.47 908.50 C 814.59 907.43 821.80 909.07 825.48 914.45 C 828.98 919.18 829.61 925.28 829.53 931.00 C 829.36 935.61 828.92 940.48 826.36 944.47 C 820.29 955.05 801.95 954.46 796.85 943.27 C 793.72 936.14 793.59 927.87 795.53 920.40 C 797.00 914.35 802.19 909.23 808.47 908.50 Z" />
</g>
<g id="#eeeeeeff">
<path fill="#eeeeee" opacity="1.00" d=" M 157.50 157.51 C 452.50 157.50 747.50 157.50 1042.50 157.50 C 1042.50 452.50 1042.50 747.50 1042.50 1042.50 C 747.50 1042.50 452.50 1042.50 157.50 1042.49 C 157.50 747.50 157.50 452.50 157.50 157.51 M 172.52 172.52 C 172.48 457.51 172.49 742.49 172.52 1027.48 C 457.51 1027.52 742.49 1027.51 1027.48 1027.48 C 1027.52 742.49 1027.51 457.51 1027.48 172.52 C 742.49 172.48 457.51 172.49 172.52 172.52 Z" />
<path fill="#eeeeee" opacity="1.00" d=" M 885.42 661.29 C 890.56 656.04 900.20 658.71 902.54 665.46 C 904.31 670.07 902.47 675.60 898.36 678.29 C 904.18 692.90 910.89 707.15 916.90 721.69 C 924.86 714.63 932.66 707.37 940.69 700.38 C 936.62 695.32 938.24 686.97 944.16 684.12 C 950.00 680.72 958.10 684.38 959.62 690.90 C 961.49 697.13 956.46 703.78 950.13 704.35 C 946.94 716.32 944.06 728.37 941.21 740.42 C 940.72 748.51 941.12 756.64 941.01 764.74 C 940.54 765.19 939.61 766.08 939.14 766.53 C 908.03 766.47 876.92 766.50 845.80 766.51 C 845.35 766.07 844.45 765.19 843.99 764.74 C 843.99 757.48 844.01 750.22 844.00 742.96 C 844.07 740.33 843.24 737.83 842.58 735.33 C 840.13 724.97 837.61 714.63 834.87 704.35 C 830.32 703.77 826.05 700.47 825.26 695.80 C 823.55 689.36 829.33 682.57 835.89 682.85 C 841.72 682.77 846.92 688.20 846.56 694.01 C 846.55 696.36 845.22 698.41 844.35 700.52 C 852.47 707.34 860.18 714.64 868.09 721.71 C 874.21 707.22 880.52 692.81 886.81 678.40 C 880.89 674.88 879.88 665.62 885.42 661.29 M 890.22 664.37 C 886.79 665.63 885.94 670.93 888.84 673.19 C 891.52 675.98 896.59 674.49 897.70 670.91 C 898.47 668.97 897.14 667.13 896.62 665.32 C 894.71 664.23 892.34 663.33 890.22 664.37 M 892.15 679.65 C 885.42 695.11 878.71 710.58 872.03 726.06 C 871.40 727.83 870.11 729.46 868.00 728.77 C 858.66 720.81 849.84 712.26 840.47 704.34 C 843.34 716.07 846.49 727.73 849.07 739.53 C 877.96 739.52 906.86 739.41 935.76 739.58 C 938.73 727.84 941.48 716.03 944.59 704.32 C 935.11 712.09 926.41 720.81 917.04 728.71 C 916.38 728.72 915.04 728.73 914.37 728.74 C 907.77 714.76 902.09 700.36 895.79 686.24 C 894.63 684.03 894.20 681.26 892.15 679.65 M 832.38 697.71 C 835.17 700.34 839.30 698.60 841.09 695.68 C 841.89 691.98 839.40 687.30 835.11 688.32 C 830.56 688.53 828.72 695.07 832.38 697.71 M 947.29 688.51 C 943.76 689.79 942.37 695.16 945.59 697.57 C 948.52 700.73 954.46 698.30 954.53 694.05 C 955.14 690.30 950.70 687.22 947.29 688.51 M 849.25 745.01 C 849.25 750.33 849.25 755.66 849.25 760.99 C 878.08 761.00 906.92 761.01 935.75 760.99 C 935.74 755.66 935.74 750.33 935.76 745.01 C 906.92 744.99 878.08 744.99 849.25 745.01 Z" />
<path fill="#eeeeee" opacity="1.00" d=" M 390.00 810.00 C 580.00 810.00 770.00 810.00 960.00 810.00 C 960.00 815.00 960.00 820.00 960.00 825.00 C 770.00 825.00 580.00 825.00 390.00 825.00 C 390.00 820.00 390.00 815.00 390.00 810.00 Z" />
<path fill="#eeeeee" opacity="1.00" d=" M 866.27 865.29 C 872.39 865.50 878.52 865.19 884.64 865.42 C 885.50 870.83 884.75 876.49 885.00 882.00 C 878.73 882.00 872.47 882.01 866.20 881.99 C 866.23 876.42 866.14 870.85 866.27 865.29 Z" />
<path fill="#eeeeee" opacity="1.00" d=" M 674.50 868.00 C 678.83 868.26 683.42 867.47 687.59 868.36 C 704.78 890.52 721.67 912.93 738.92 935.05 C 739.11 912.70 738.94 890.35 739.00 868.00 C 744.50 867.99 749.99 868.00 755.50 868.00 C 755.50 900.00 755.50 932.00 755.50 964.00 C 751.11 964.00 746.73 964.00 742.35 964.00 C 725.14 942.06 708.16 919.92 690.80 898.10 C 690.50 919.99 690.63 941.90 690.74 963.80 C 685.33 964.21 679.91 963.91 674.50 964.00 C 674.50 932.00 674.50 900.00 674.50 868.00 Z" />
<path fill="#eeeeee" opacity="1.00" d=" M 803.56 895.73 C 812.81 894.17 822.96 894.78 831.08 899.89 C 839.36 904.60 844.65 913.60 845.94 922.91 C 847.21 931.45 846.42 940.59 842.37 948.34 C 837.98 956.88 829.18 962.68 819.84 964.38 C 810.73 965.79 800.85 965.07 792.85 960.14 C 785.26 955.85 780.06 947.97 778.41 939.48 C 776.52 929.76 777.27 919.10 782.33 910.41 C 786.77 902.67 794.88 897.43 803.56 895.73 M 808.47 908.50 C 802.19 909.23 797.00 914.35 795.53 920.40 C 793.59 927.87 793.72 936.14 796.85 943.27 C 801.95 954.46 820.29 955.05 826.36 944.47 C 828.92 940.48 829.36 935.61 829.53 931.00 C 829.61 925.28 828.98 919.18 825.48 914.45 C 821.80 909.07 814.59 907.43 808.47 908.50 Z" />
<path fill="#eeeeee" opacity="1.00" d=" M 924.27 908.75 C 928.23 897.90 941.01 892.79 951.79 895.68 C 951.62 901.16 951.68 906.65 951.47 912.14 C 944.08 908.01 933.31 909.04 928.26 916.33 C 925.88 919.71 924.96 923.91 924.99 928.00 C 925.00 940.00 925.00 952.00 925.00 964.00 C 919.35 964.00 913.70 963.99 908.05 964.00 C 908.18 948.99 908.06 933.99 908.11 918.98 C 908.00 911.31 908.22 903.59 906.96 896.00 C 912.28 896.00 917.60 896.00 922.93 896.00 C 923.30 900.25 923.75 904.50 924.27 908.75 Z" />
<path fill="#eeeeee" opacity="1.00" d=" M 867.09 896.10 C 872.72 895.89 878.36 896.04 884.00 896.00 C 884.00 918.67 884.00 941.33 884.00 964.00 C 878.35 964.00 872.70 963.99 867.05 964.00 C 867.16 941.37 867.09 918.73 867.09 896.10 Z" />
</g>
</svg>
