<?xml version="1.0" encoding="UTF-8" ?>
<!DOCTYPE svg PUBLIC "-//W3C//DTD SVG 1.1//EN" "http://www.w3.org/Graphics/SVG/1.1/DTD/svg11.dtd">
<svg width="100px" height="70px" viewBox="0 0 400 285" version="1.1" xmlns="http://www.w3.org/2000/svg">
<g id="#2d2d2dff">
<path fill="#2d2d2d" opacity="1.00" d=" M 10.45 10.45 C 136.63 10.76 262.81 10.49 389.00 10.59 C 389.00 98.06 389.00 185.53 389.00 273.00 C 262.86 273.00 136.72 273.00 10.58 273.00 C 10.58 188.99 10.59 104.98 10.58 20.98 C 10.61 17.47 10.62 13.96 10.45 10.45 M 259.25 46.01 C 259.21 52.95 259.35 59.89 259.17 66.83 C 269.11 66.64 279.05 66.79 288.99 66.75 C 289.01 59.83 289.00 52.92 289.00 46.00 C 279.08 46.00 269.16 45.99 259.25 46.01 M 64.85 75.84 C 59.65 79.19 56.64 84.96 55.12 90.80 C 54.93 85.53 55.02 80.27 55.00 75.00 C 45.08 75.00 35.16 74.99 25.25 75.01 C 25.20 116.62 25.36 158.23 25.17 199.83 C 35.11 199.64 45.05 199.79 54.99 199.75 C 55.04 170.15 54.95 140.54 55.04 110.93 C 55.34 106.63 54.89 101.49 58.16 98.17 C 60.88 95.57 65.17 96.92 67.54 99.31 C 68.47 101.77 69.09 104.36 69.00 107.01 C 69.01 137.92 68.99 168.84 69.00 199.75 C 78.77 199.75 88.53 199.74 98.29 199.76 C 98.20 168.17 98.29 136.58 98.24 104.99 C 98.12 99.77 98.06 94.46 96.40 89.45 C 94.24 82.82 89.25 76.58 82.22 74.89 C 76.55 73.57 70.17 73.05 64.85 75.84 M 169.50 74.53 C 158.60 76.57 148.58 84.12 144.77 94.71 C 140.73 103.95 141.58 114.19 141.50 124.02 C 141.56 137.33 141.38 150.65 141.59 163.96 C 141.66 172.73 143.50 181.85 148.85 188.99 C 155.34 197.05 165.87 200.78 175.99 200.87 C 185.87 201.42 196.40 199.56 204.33 193.31 C 212.60 186.51 215.81 175.40 215.86 165.04 C 216.18 150.04 215.91 135.03 216.00 120.03 C 216.08 113.62 215.96 107.14 214.57 100.85 C 212.82 92.05 207.26 84.20 199.86 79.21 C 190.91 73.48 179.73 73.03 169.50 74.53 M 375.25 75.06 C 369.27 77.37 364.57 82.58 363.10 88.85 C 362.98 84.23 362.98 79.62 363.00 75.00 C 353.00 75.00 343.00 75.00 333.00 75.00 C 333.00 116.58 332.99 158.17 333.01 199.75 C 343.00 199.74 353.00 199.74 362.99 199.75 C 362.97 167.82 363.08 135.88 362.94 103.95 C 363.84 103.01 364.70 101.88 366.05 101.57 C 371.98 99.73 378.12 98.32 384.36 98.37 C 384.16 90.06 384.22 81.74 384.33 73.43 C 381.28 73.82 378.16 74.02 375.25 75.06 M 259.25 75.01 C 259.20 116.62 259.36 158.23 259.17 199.83 C 269.11 199.64 279.05 199.79 288.99 199.75 C 289.01 158.17 289.00 116.58 289.00 75.00 C 279.08 75.00 269.16 74.99 259.25 75.01 Z" />
<path fill="#2d2d2d" opacity="1.00" d=" M 175.50 97.25 C 177.61 96.88 179.76 96.83 181.88 97.15 C 185.20 100.11 185.77 104.71 185.74 108.91 C 185.75 128.30 185.75 147.68 185.75 167.07 C 185.63 170.44 185.51 174.46 182.63 176.74 C 180.65 178.57 177.74 177.68 175.34 177.62 C 172.73 175.12 171.74 171.55 171.77 168.03 C 171.72 148.34 171.76 128.65 171.75 108.97 C 171.75 104.80 172.17 100.19 175.50 97.25 Z" />
</g>
<g id="#ffffffff">
<path fill="#ffffff" opacity="1.00" d=" M 259.25 46.01 C 269.16 45.99 279.08 46.00 289.00 46.00 C 289.00 52.92 289.01 59.83 288.99 66.75 C 279.05 66.79 269.11 66.64 259.17 66.83 C 259.35 59.89 259.21 52.95 259.25 46.01 Z" />
<path fill="#ffffff" opacity="1.00" d=" M 64.85 75.84 C 70.17 73.05 76.55 73.57 82.22 74.89 C 89.25 76.58 94.24 82.82 96.40 89.45 C 98.06 94.46 98.12 99.77 98.24 104.99 C 98.29 136.58 98.20 168.17 98.29 199.76 C 88.53 199.74 78.77 199.75 69.00 199.75 C 68.99 168.84 69.01 137.92 69.00 107.01 C 69.09 104.36 68.47 101.77 67.54 99.31 C 65.17 96.92 60.88 95.57 58.16 98.17 C 54.89 101.49 55.34 106.63 55.04 110.93 C 54.95 140.54 55.04 170.15 54.99 199.75 C 45.05 199.79 35.11 199.64 25.17 199.83 C 25.36 158.23 25.20 116.62 25.25 75.01 C 35.16 74.99 45.08 75.00 55.00 75.00 C 55.02 80.27 54.93 85.53 55.12 90.80 C 56.64 84.96 59.65 79.19 64.85 75.84 Z" />
<path fill="#ffffff" opacity="1.00" d=" M 169.50 74.53 C 179.73 73.03 190.91 73.48 199.86 79.21 C 207.26 84.20 212.82 92.05 214.57 100.85 C 215.96 107.14 216.08 113.62 216.00 120.03 C 215.91 135.03 216.18 150.04 215.86 165.04 C 215.81 175.40 212.60 186.51 204.33 193.31 C 196.40 199.56 185.87 201.42 175.99 200.87 C 165.87 200.78 155.34 197.05 148.85 188.99 C 143.50 181.85 141.66 172.73 141.59 163.96 C 141.38 150.65 141.56 137.33 141.50 124.02 C 141.58 114.19 140.73 103.95 144.77 94.71 C 148.58 84.12 158.60 76.57 169.50 74.53 M 175.50 97.25 C 172.17 100.19 171.75 104.80 171.75 108.97 C 171.76 128.65 171.72 148.34 171.77 168.03 C 171.74 171.55 172.73 175.12 175.34 177.62 C 177.74 177.68 180.65 178.57 182.63 176.74 C 185.51 174.46 185.63 170.44 185.75 167.07 C 185.75 147.68 185.75 128.30 185.74 108.91 C 185.77 104.71 185.20 100.11 181.88 97.15 C 179.76 96.83 177.61 96.88 175.50 97.25 Z" />
<path fill="#ffffff" opacity="1.00" d=" M 375.25 75.06 C 378.16 74.02 381.28 73.82 384.33 73.43 C 384.22 81.74 384.16 90.06 384.36 98.37 C 378.12 98.32 371.98 99.73 366.05 101.57 C 364.70 101.88 363.84 103.01 362.94 103.95 C 363.08 135.88 362.97 167.82 362.99 199.75 C 353.00 199.74 343.00 199.74 333.01 199.75 C 332.99 158.17 333.00 116.58 333.00 75.00 C 343.00 75.00 353.00 75.00 363.00 75.00 C 362.98 79.62 362.98 84.23 363.10 88.85 C 364.57 82.58 369.27 77.37 375.25 75.06 Z" />
<path fill="#ffffff" opacity="1.00" d=" M 259.25 75.01 C 269.16 74.99 279.08 75.00 289.00 75.00 C 289.00 116.58 289.01 158.17 288.99 199.75 C 279.05 199.79 269.11 199.64 259.17 199.83 C 259.36 158.23 259.20 116.62 259.25 75.01 Z" />
</g>
</svg>
